<svg xmlns="http://www.w3.org/2000/svg" viewBox="0 0 800 500" role="img">
<defs>
<linearGradient id="bg" x1="0" y1="0" x2="1" y2="1"><stop stop-color="#0a0a12"/><stop offset="1" stop-color="#19142e"/></linearGradient>
<filter id="glow"><feGaussianBlur stdDeviation="12" result="b"/><feMerge><feMergeNode in="b"/><feMergeNode in="SourceGraphic"/></feMerge></filter>

</defs>
<rect width="800" height="500" rx="28" fill="url(#bg)"/>

<defs><linearGradient id="sky" x1="0" y1="0" x2="0" y2="1"><stop stop-color="#29204d"/><stop offset="1" stop-color="#0a1117"/></linearGradient></defs>
<rect x="18" y="18" width="764" height="464" rx="26" fill="url(#sky)"/>
<path d="M35 405 L170 180 L268 335 L390 105 L532 337 L650 210 L780 420 Z" fill="#20253f"/>
<path d="M125 300 L170 180 L212 286 ZM335 190 L390 105 L448 196 ZM608 268 L650 210 L698 282 Z" fill="#dfe9ff" opacity=".8"/>
<path d="M0 400 Q155 350 300 410 Q480 350 800 406 V500 H0Z" fill="#091014"/>
<g transform="translate(520 250)" fill="#151523" stroke="#a985ff" stroke-width="4"><rect x="-60" y="50" width="120" height="120"/><rect x="-88" y="20" width="42" height="150"/><rect x="46" y="20" width="42" height="150"/><path d="M-88 20 l21-42 21 42M46 20 l21-42 21 42"/><path d="M-60 50 l60-50 60 50"/></g>
<circle cx="132" cy="120" r="44" fill="#d3b1ff" opacity=".65" filter="url(#glow)"/>

</svg>